{
    "asset" : {
        "generator" : "Khronos glTF Blender I/O v1.3.48",
        "version" : "2.0"
    },
    "extensionsUsed" : [
        "KHR_materials_clearcoat"
    ],
    "scene" : 0,
    "scenes" : [
        {
            "name" : "Scene",
            "nodes" : [
                1
            ]
        }
    ],
    "nodes" : [
        {
            "mesh" : 0,
            "name" : "Mesh_Mesh_head_geo.001_lambert2SG.001",
            "rotation" : [
                0.01011009979993105,
                0.9999486804008484,
                -0.0006044688052497804,
                0.00023703280021436512
            ],
            "scale" : [
                -0.005401466973125935,
                0.0037710661999881268,
                -0.01694379933178425
            ],
            "translation" : [
                -0.7512703537940979,
                0.021975187584757805,
                -8.952372550964355
            ]
        },
        {
            "children" : [
                0
            ],
            "name" : "Node_1",
            "rotation" : [
                -0.7071068286895752,
                0,
                0,
                0.7071068286895752
            ],
            "scale" : [
                0.8454367518424988,
                1,
                0.28758904337882996
            ],
            "translation" : [
                0.5891506671905518,
                2.5794432163238525,
                0
            ]
        }
    ],
    "materials" : [
        {
            "emissiveFactor" : [
                0,
                0,
                0
            ],
            "extensions" : {
                "KHR_materials_clearcoat" : {
                    "clearcoatFactor" : 1,
                    "clearcoatRoughnessFactor" : 0
                }
            },
            "name" : "lambert2SG.002",
            "pbrMetallicRoughness" : {
                "metallicFactor" : 1,
                "roughnessFactor" : 0.09696969389915466
            }
        }
    ],
    "meshes" : [
        {
            "name" : "Mesh_0.001",
            "primitives" : [
                {
                    "attributes" : {
                        "POSITION" : 0,
                        "NORMAL" : 1,
                        "COLOR_0" : 2
                    },
                    "indices" : 3,
                    "material" : 0
                }
            ]
        }
    ],
    "accessors" : [
        {
            "bufferView" : 0,
            "componentType" : 5126,
            "count" : 39978,
            "max" : [
                100,
                78,
                168
            ],
            "min" : [
                -74,
                -100,
                -2
            ],
            "type" : "VEC3"
        },
        {
            "bufferView" : 1,
            "componentType" : 5126,
            "count" : 39978,
            "type" : "VEC3"
        },
        {
            "bufferView" : 2,
            "componentType" : 5126,
            "count" : 39978,
            "type" : "VEC4"
        },
        {
            "bufferView" : 3,
            "componentType" : 5123,
            "count" : 39978,
            "type" : "SCALAR"
        }
    ],
    "bufferViews" : [
        {
            "buffer" : 0,
            "byteLength" : 479736,
            "byteOffset" : 0
        },
        {
            "buffer" : 0,
            "byteLength" : 479736,
            "byteOffset" : 479736
        },
        {
            "buffer" : 0,
            "byteLength" : 639648,
            "byteOffset" : 959472
        },
        {
            "buffer" : 0,
            "byteLength" : 79956,
            "byteOffset" : 1599120
        }
    ],
    "buffers" : [
        {
            "byteLength" : 1679076,
            "uri" : "data:application/octet-stream;base64,"
        }
    ]
}
